<svg id="Laag_1" data-name="Laag 1" xmlns="http://www.w3.org/2000/svg" viewBox="0 0 115.57 99.43"><defs><style>.cls-1,.cls-4{fill:#9a2620;}.cls-2{fill:#fff;stroke:#000;stroke-miterlimit:10;}.cls-3{fill:none;stroke:#9a2620;stroke-linecap:round;stroke-linejoin:bevel;stroke-width:1.5px;}.cls-4{font-size:10.14px;font-family:BerlinSansFB-Bold, Berlin Sans FB;font-weight:700;}</style></defs><title>logo</title><polygon class="cls-1" points="81.3 22.85 80.83 79.04 90.52 72.35 90.52 29.09 81.3 22.85"/><path class="cls-2" d="M107.89,57.42" transform="translate(-13.08 -21.15)"/><polyline class="cls-1" points="92.36 31.1 92.36 71.24 101 65.76 101 36.38 92.36 30.65"/><polyline class="cls-1" points="102.04 46.93 104.35 46.93 105.27 48.27 105.27 53.18 104.35 54.96 102.04 54.96"/><polygon class="cls-3" points="56.86 7.07 108.96 32.89 108.96 69.31 56.86 92.36 6.61 69.31 6.61 32.89 56.86 7.07"/><path class="cls-1" d="M69.94,23.15l55.79,27.2.92,42.88L69.94,118.58,16,94.15l-.92-42.88L69.94,23.15m0-2a2,2,0,0,0-.91.22L14.17,49.49a2,2,0,0,0-1.09,1.83L14,94.19A2,2,0,0,0,15.18,96L69.12,120.4a2,2,0,0,0,.82.18,2.11,2.11,0,0,0,.82-.17l56.71-25.36a2,2,0,0,0,1.18-1.87l-.92-42.87a2,2,0,0,0-1.13-1.76L70.82,21.35a2.09,2.09,0,0,0-.88-.2Z" transform="translate(-13.08 -21.15)"/><polygon class="cls-1" points="34.04 22.85 34.5 79.04 24.82 72.35 24.82 29.09 34.04 22.85"/><polyline class="cls-1" points="22.98 31.1 22.98 71.24 14.34 65.76 14.34 36.38 22.98 30.65"/><polyline class="cls-1" points="13.29 46.93 10.99 46.93 10.07 48.27 10.07 53.18 10.99 54.96 13.29 54.96"/><text class="cls-4" transform="translate(36.68 53.68)">PROFITT</text></svg>